<svg width="200" height="138" viewBox="0 0 200 138" fill="none" xmlns="http://www.w3.org/2000/svg">
<path d="M20.2869 86.12C19.7802 86.12 19.3935 86.04 19.1269 85.88C18.8602 85.7467 18.6735 85.6 18.5669 85.44C18.4869 85.28 18.4469 85.1467 18.4469 85.04C18.4469 84.9067 18.5269 84.84 18.6869 84.84C18.9002 84.84 19.0602 84.8933 19.1669 85C19.3802 85.1867 19.6869 85.28 20.0869 85.28C20.6469 85.28 21.3002 85.1067 22.0469 84.76C22.8202 84.44 23.5935 84.0533 24.3669 83.6C25.1402 83.1467 25.8202 82.7067 26.4069 82.28C27.0202 81.8533 27.4602 81.5467 27.7269 81.36C28.8735 80.5067 30.0602 79.5733 31.2869 78.56C32.5135 77.5467 33.7002 76.5333 34.8469 75.52C35.9935 74.5067 37.0202 73.5733 37.9269 72.72C38.8602 71.8667 39.5935 71.1867 40.1269 70.68C40.6869 70.1467 40.9669 69.8667 40.9669 69.84C41.1535 69.0667 41.3802 68.0533 41.6469 66.8C41.9402 65.5467 42.0869 64.3067 42.0869 63.08C42.0869 62.1733 41.9669 61.3333 41.7269 60.56C41.4869 59.7867 41.0469 59.1733 40.4069 58.72C39.7935 58.24 38.9269 58 37.8069 58C36.8202 58 35.7802 58.2133 34.6869 58.64C33.6202 59.0667 32.5935 59.6667 31.6069 60.44C30.6469 61.1867 29.8469 62.08 29.2069 63.12C28.9135 63.6267 28.6735 64.2267 28.4869 64.92C28.3002 65.5867 28.2069 66.2667 28.2069 66.96C28.2069 68.0267 28.4602 68.9867 28.9669 69.84C29.5002 70.6933 30.3935 71.12 31.6469 71.12C32.4735 71.12 33.2602 70.88 34.0069 70.4C34.7535 69.92 35.4202 69.3067 36.0069 68.56C36.5935 67.7867 37.0469 66.9867 37.3669 66.16C37.7135 65.3333 37.8869 64.5733 37.8869 63.88C37.8869 63.2667 37.7269 62.76 37.4069 62.36C37.1135 61.96 36.6335 61.76 35.9669 61.76C35.3535 61.76 34.6735 62.04 33.9269 62.6C33.1802 63.16 32.7002 63.8933 32.4869 64.8C32.3802 65.2533 32.2202 65.48 32.0069 65.48C31.8469 65.48 31.7669 65.3333 31.7669 65.04C31.7669 64.96 31.7935 64.8133 31.8469 64.6C32.1935 63.4267 32.7802 62.56 33.6069 62C34.4602 61.4133 35.3135 61.12 36.1669 61.12C37.0202 61.12 37.7535 61.3867 38.3669 61.92C39.0069 62.4533 39.3269 63.2267 39.3269 64.24C39.3269 64.8 39.2335 65.3733 39.0469 65.96C38.7535 66.8667 38.2469 67.76 37.5269 68.64C36.8335 69.4933 35.9669 70.2 34.9269 70.76C33.9135 71.32 32.7802 71.6 31.5269 71.6C31.4202 71.6 31.3002 71.6 31.1669 71.6C31.0335 71.6 30.9002 71.5867 30.7669 71.56C29.5402 71.4267 28.5935 70.8933 27.9269 69.96C27.2602 69 26.9269 67.9067 26.9269 66.68C26.9269 65.24 27.3535 63.8533 28.2069 62.52C29.0069 61.2667 29.9669 60.2667 31.0869 59.52C32.2069 58.7467 33.3935 58.1867 34.6469 57.84C35.9002 57.4933 37.0869 57.32 38.2069 57.32C39.7802 57.32 41.0869 57.6 42.1269 58.16C43.1935 58.7733 43.9002 59.6667 44.2469 60.84C44.6202 62.0133 44.8069 63.1467 44.8069 64.24C44.8069 65.2533 44.7269 66.08 44.5669 66.72C45.7669 65.68 46.8602 64.72 47.8469 63.84C48.8335 62.96 49.8869 62.08 51.0069 61.2C52.1535 60.32 53.5002 59.36 55.0469 58.32C55.8202 57.7867 56.5802 57.4133 57.3269 57.2C58.1002 56.9867 58.8069 56.88 59.4469 56.88C59.7669 56.88 59.9269 57.0133 59.9269 57.28C59.9269 57.4933 59.8069 57.6267 59.5669 57.68C58.6602 57.76 57.6602 58.0933 56.5669 58.68C55.4735 59.24 54.3535 59.9467 53.2069 60.8C52.0602 61.6533 50.9269 62.56 49.8069 63.52C48.6869 64.48 47.6469 65.4133 46.6869 66.32C45.7269 67.2 44.8869 67.9467 44.1669 68.56C43.6602 70.5867 43.2602 72.3867 42.9669 73.96C42.6735 75.5067 42.5269 77.0267 42.5269 78.52C42.5269 79.56 42.6469 80.3067 42.8869 80.76C43.1535 81.1867 43.5002 81.4 43.9269 81.4C44.3002 81.4 44.7269 81.2533 45.2069 80.96C45.7135 80.6667 46.2469 80.28 46.8069 79.8C47.4469 79.24 48.0735 78.6267 48.6869 77.96C49.3002 77.2667 49.8469 76.6133 50.3269 76C50.8069 75.3867 51.1535 74.9067 51.3669 74.56C51.5002 74.3467 51.6602 74.24 51.8469 74.24C52.0869 74.24 52.2069 74.3733 52.2069 74.64C52.2069 74.8 52.1535 74.9733 52.0469 75.16C51.8869 75.4533 51.5535 75.92 51.0469 76.56C50.5402 77.2 49.9535 77.88 49.2869 78.6C48.6469 79.2933 48.0069 79.9333 47.3669 80.52C46.8602 81 46.2602 81.44 45.5669 81.84C44.9002 82.24 44.1802 82.44 43.4069 82.44C42.6602 82.44 41.9269 82.1867 41.2069 81.68C40.5135 81.1733 40.1135 80.4533 40.0069 79.52C39.9802 79.3067 39.9535 79.08 39.9269 78.84C39.9269 78.6 39.9269 78.3467 39.9269 78.08C39.9269 76.9067 40.0069 75.72 40.1669 74.52C40.3269 73.2933 40.4602 72.3333 40.5669 71.64C39.9535 72.2 39.0469 73.04 37.8469 74.16C36.6469 75.2533 35.2735 76.4667 33.7269 77.8C32.2069 79.1333 30.6069 80.4533 28.9269 81.76C26.7402 83.4667 24.9402 84.6133 23.5269 85.2C22.1402 85.8133 21.0602 86.12 20.2869 86.12ZM64.3506 83.92C63.1773 83.92 62.484 83.4 62.2706 82.36C62.244 82.2 62.2173 82.04 62.1906 81.88C62.1906 81.72 62.1906 81.5467 62.1906 81.36C62.1906 80.32 62.404 79.1333 62.8306 77.8C63.2573 76.44 63.7906 75.1467 64.4306 73.92C65.284 72.2933 65.884 70.8 66.2306 69.44C66.604 68.08 66.7906 66.8667 66.7906 65.8C66.7906 64.3333 66.524 63.12 65.9906 62.16C65.484 61.2 64.8306 60.4933 64.0306 60.04C63.2306 59.56 62.404 59.3333 61.5506 59.36C60.2973 59.3867 59.1506 59.68 58.1106 60.24C57.0706 60.8 56.164 61.5333 55.3906 62.44C54.6173 63.3467 54.0173 64.36 53.5906 65.48C53.164 66.5733 52.9506 67.68 52.9506 68.8C52.9506 69.3333 53.0173 69.9067 53.1506 70.52C53.364 71.48 53.7773 72.2267 54.3906 72.76C55.0306 73.2667 55.6973 73.52 56.3906 73.52C57.164 73.52 57.8573 73.1733 58.4706 72.48C59.1106 71.76 59.404 70.64 59.3506 69.12C59.3506 68.9867 59.3906 68.88 59.4706 68.8C59.5506 68.6933 59.6306 68.64 59.7106 68.64C59.844 68.64 59.9106 68.7733 59.9106 69.04C59.9906 70.24 59.804 71.2533 59.3506 72.08C58.8973 72.9067 58.2973 73.5333 57.5506 73.96C56.804 74.3867 56.0173 74.6 55.1906 74.6C54.2306 74.6 53.3373 74.3067 52.5106 73.72C51.7106 73.1067 51.164 72.1867 50.8706 70.96C50.8173 70.6667 50.7773 70.3867 50.7506 70.12C50.724 69.8267 50.7106 69.5467 50.7106 69.28C50.7106 67.9467 50.9906 66.6533 51.5506 65.4C52.1373 64.1467 52.9373 63.0267 53.9506 62.04C54.9906 61.0267 56.1906 60.2267 57.5506 59.64C58.9373 59.0533 60.4173 58.76 61.9906 58.76C63.404 58.76 64.6706 59.0667 65.7906 59.68C66.9373 60.2667 67.8306 61.1333 68.4706 62.28C69.1373 63.4 69.4706 64.76 69.4706 66.36C69.4706 67.4267 69.2973 68.5867 68.9506 69.84C68.6306 71.0667 68.1106 72.3867 67.3906 73.8C67.0173 74.52 66.604 75.3867 66.1506 76.4C65.724 77.3867 65.3506 78.36 65.0306 79.32C64.7373 80.28 64.5906 81.0933 64.5906 81.76C64.5906 82.56 64.8973 82.96 65.5106 82.96C65.884 82.96 66.2973 82.84 66.7506 82.6C67.204 82.3867 67.6306 82.1467 68.0306 81.88C68.4306 81.5867 68.7106 81.36 68.8706 81.2C69.9906 80.2667 71.1906 79.0933 72.4706 77.68C73.7773 76.24 75.044 74.64 76.2706 72.88C77.4973 71.0933 78.5773 69.2267 79.5106 67.28C80.4706 65.3067 81.164 63.3333 81.5906 61.36C81.644 61.1467 81.684 60.92 81.7106 60.68C81.7373 60.44 81.7506 60.1867 81.7506 59.92C81.7506 59.3067 81.6706 58.7067 81.5106 58.12C81.3506 57.5067 81.0706 57 80.6706 56.6C80.2973 56.1733 79.764 55.96 79.0706 55.96C78.964 55.96 78.8573 55.9733 78.7506 56C78.644 56 78.524 56.0133 78.3906 56.04C78.1773 56.0933 77.9506 56.2 77.7106 56.36C77.4973 56.4933 77.3373 56.56 77.2306 56.56C77.0973 56.5333 76.9906 56.4667 76.9106 56.36C76.8573 56.2533 76.884 56.1467 76.9906 56.04C77.2306 55.7467 77.6973 55.5333 78.3906 55.4C78.524 55.3467 78.6573 55.32 78.7906 55.32C78.924 55.32 79.0573 55.32 79.1906 55.32C79.884 55.32 80.5773 55.4933 81.2706 55.84C81.9906 56.1867 82.5906 56.7067 83.0706 57.4C83.5773 58.0933 83.8306 58.9467 83.8306 59.96C83.8306 60.12 83.8306 60.28 83.8306 60.44C83.8306 60.6 83.804 60.7733 83.7506 60.96C83.4573 62.6933 82.8306 64.52 81.8706 66.44C80.9373 68.36 79.804 70.24 78.4706 72.08C77.1373 73.92 75.724 75.64 74.2306 77.24C72.764 78.84 71.3373 80.1867 69.9506 81.28C68.804 82.1867 67.7506 82.8533 66.7906 83.28C65.8573 83.7067 65.044 83.92 64.3506 83.92ZM85.9581 69.04C85.5581 69.04 85.2515 68.9067 85.0381 68.64C84.8248 68.3733 84.7181 68.0667 84.7181 67.72C84.7181 67.3467 84.8515 67.04 85.1181 66.8C85.4115 66.56 85.7181 66.44 86.0381 66.44C86.4381 66.44 86.7581 66.5733 86.9981 66.84C87.2381 67.08 87.3581 67.3733 87.3581 67.72C87.3581 68.0667 87.2115 68.3733 86.9181 68.64C86.6248 68.9067 86.3048 69.04 85.9581 69.04ZM84.0381 82.68C83.1315 82.68 82.4115 82.3467 81.8781 81.68C81.3448 80.9867 81.0781 80.12 81.0781 79.08C81.0781 78.3333 81.2115 77.5733 81.4781 76.8C81.6115 76.3733 81.7715 75.88 81.9581 75.32C82.1448 74.7333 82.3181 74.2267 82.4781 73.8C82.1315 74.3067 81.7715 74.8133 81.3981 75.32C81.0515 75.8267 80.6648 76.32 80.2381 76.8C79.9981 77.0667 79.7715 77.2 79.5581 77.2C79.4515 77.2 79.3981 77.1467 79.3981 77.04C79.3981 76.9333 79.4648 76.8 79.5981 76.64C80.5315 75.44 81.3048 74.3333 81.9181 73.32C82.5581 72.3067 83.0381 71.5467 83.3581 71.04C83.5715 70.6667 83.9181 70.44 84.3981 70.36C84.8781 70.28 85.2915 70.2533 85.6381 70.28C85.7448 70.28 85.8648 70.2933 85.9981 70.32C86.1315 70.32 86.3315 70.32 86.5981 70.32C86.4381 70.64 86.1848 71.1867 85.8381 71.96C85.5181 72.7067 85.1848 73.52 84.8381 74.4C84.4915 75.2533 84.1848 76.0133 83.9181 76.68C83.6781 77.2667 83.4781 77.8533 83.3181 78.44C83.1848 79.0267 83.1181 79.56 83.1181 80.04C83.1181 80.5467 83.2115 80.96 83.3981 81.28C83.5848 81.6 83.8781 81.76 84.2781 81.76C84.8115 81.76 85.4248 81.5467 86.1181 81.12C86.8115 80.6933 87.5048 80.16 88.1981 79.52C88.9181 78.88 89.5715 78.2267 90.1581 77.56C90.7715 76.8667 91.2515 76.2533 91.5981 75.72C91.7048 75.56 91.8248 75.48 91.9581 75.48C92.0915 75.48 92.1581 75.5867 92.1581 75.8C92.1581 75.96 92.1048 76.1067 91.9981 76.24C90.6115 78.1333 89.2648 79.68 87.9581 80.88C86.6781 82.08 85.3715 82.68 84.0381 82.68ZM102.007 82.28C101.101 82.28 100.354 81.96 99.7672 81.32C99.2072 80.6533 98.9272 79.88 98.9272 79C98.9272 78.8667 98.9272 78.7333 98.9272 78.6C98.9539 78.4667 98.9805 78.3467 99.0072 78.24C98.7672 78.64 98.4472 79.1333 98.0472 79.72C97.6739 80.3067 97.2472 80.84 96.7672 81.32C96.2872 81.8 95.7539 82.08 95.1672 82.16C95.0605 82.1867 94.9539 82.2 94.8472 82.2C94.7405 82.2 94.6472 82.2 94.5672 82.2C93.4739 82.2 92.6605 81.8 92.1272 81C91.6205 80.1733 91.3672 79.1867 91.3672 78.04C91.3672 77.16 91.5005 76.2667 91.7672 75.36C92.0605 74.4267 92.4739 73.5733 93.0072 72.8C93.5405 72 94.1805 71.36 94.9272 70.88C95.6739 70.4 96.5272 70.16 97.4872 70.16C97.8072 70.16 98.2072 70.2267 98.6872 70.36C99.1672 70.4667 99.6205 70.6 100.047 70.76C100.474 70.92 100.767 71.08 100.927 71.24C101.141 70.76 101.394 70.04 101.687 69.08C101.981 68.12 102.341 67.1467 102.767 66.16C103.034 65.5467 103.341 64.8667 103.687 64.12C104.061 63.3733 104.487 62.6533 104.967 61.96C105.447 61.24 105.994 60.6533 106.607 60.2C107.221 59.7467 107.927 59.52 108.727 59.52C109.314 59.52 109.807 59.68 110.207 60C110.607 60.32 110.807 60.8133 110.807 61.48C110.807 62.0667 110.607 62.7867 110.207 63.64C109.621 64.8933 108.754 66.4133 107.607 68.2C106.461 69.9867 104.754 71.9467 102.487 74.08C102.381 74.3733 102.221 74.8267 102.007 75.44C101.794 76.0267 101.594 76.68 101.407 77.4C101.247 78.12 101.167 78.7867 101.167 79.4C101.167 79.9333 101.247 80.36 101.407 80.68C101.594 81 101.874 81.16 102.247 81.16C102.381 81.16 102.514 81.1467 102.647 81.12C102.781 81.0933 102.941 81.04 103.127 80.96C103.874 80.64 104.647 80.1733 105.447 79.56C106.274 78.92 107.061 78.1867 107.807 77.36C108.581 76.5333 109.221 75.7067 109.727 74.88C109.834 74.6933 109.967 74.6 110.127 74.6C110.261 74.6 110.327 74.6933 110.327 74.88C110.327 74.9867 110.287 75.12 110.207 75.28C109.754 76 109.167 76.8133 108.447 77.72C107.727 78.6267 106.954 79.4667 106.127 80.24C105.327 80.9867 104.527 81.5333 103.727 81.88C103.167 82.1467 102.594 82.28 102.007 82.28ZM103.047 72.36C104.061 71.32 104.981 70.2267 105.807 69.08C106.661 67.9067 107.407 66.7733 108.047 65.68C108.687 64.56 109.181 63.6 109.527 62.8C109.661 62.56 109.741 62.3333 109.767 62.12C109.821 61.9067 109.847 61.72 109.847 61.56C109.847 60.8933 109.581 60.56 109.047 60.56C108.781 60.56 108.461 60.6933 108.087 60.96C107.741 61.2267 107.407 61.6667 107.087 62.28C106.261 63.7733 105.554 65.4 104.967 67.16C104.381 68.8933 103.741 70.6267 103.047 72.36ZM95.1672 81.24C95.9672 81.0533 96.6872 80.4933 97.3272 79.56C97.9672 78.6 98.5539 77.4533 99.0872 76.12C99.6205 74.7867 100.127 73.4667 100.607 72.16C100.474 72 100.287 71.8267 100.047 71.64C99.8339 71.4533 99.5272 71.3067 99.1272 71.2C98.8872 71.12 98.6472 71.08 98.4072 71.08C97.7405 71.08 97.1139 71.3733 96.5272 71.96C95.9405 72.5467 95.4339 73.28 95.0072 74.16C94.5805 75.04 94.2472 75.9467 94.0072 76.88C93.7672 77.7867 93.6472 78.56 93.6472 79.2C93.6472 80.72 94.1539 81.4 95.1672 81.24ZM112.745 82.32C111.812 82.3733 111.052 82.2133 110.465 81.84C109.905 81.44 109.492 80.92 109.225 80.28C108.985 79.6133 108.865 78.92 108.865 78.2C108.865 77.8 108.905 77.4 108.985 77C109.065 76.6 109.159 76.2267 109.265 75.88C109.559 75.0267 109.959 74.24 110.465 73.52C110.972 72.8 111.519 72.1867 112.105 71.68C112.665 71.2 113.279 70.8267 113.945 70.56C114.639 70.2667 115.279 70.12 115.865 70.12C116.452 70.12 116.945 70.28 117.345 70.6C117.745 70.8933 117.945 71.3867 117.945 72.08C117.945 72.4533 117.865 72.92 117.705 73.48C117.412 74.4133 116.785 75.24 115.825 75.96C114.892 76.68 113.879 77.04 112.785 77.04C112.465 77.04 112.119 77 111.745 76.92C111.559 77.5867 111.465 78.2667 111.465 78.96C111.465 79.68 111.612 80.28 111.905 80.76C112.225 81.2133 112.732 81.44 113.425 81.44C114.225 81.44 115.105 81.1733 116.065 80.64C117.025 80.08 117.985 79.3333 118.945 78.4C119.932 77.4667 120.825 76.4 121.625 75.2C121.732 75.0133 121.852 74.92 121.985 74.92C122.119 74.92 122.185 75.0267 122.185 75.24C122.185 75.4533 122.119 75.64 121.985 75.8C121.265 76.7867 120.439 77.7733 119.505 78.76C118.572 79.72 117.545 80.5333 116.425 81.2C115.305 81.8667 114.079 82.24 112.745 82.32ZM112.505 76.36C112.959 76.36 113.452 76.1867 113.985 75.84C114.519 75.4933 115.012 75.08 115.465 74.6C115.945 74.12 116.279 73.68 116.465 73.28C116.759 72.6933 116.905 72.2 116.905 71.8C116.905 71.4267 116.799 71.1733 116.585 71.04C116.399 70.9067 116.252 70.84 116.145 70.84C115.879 70.84 115.505 70.9867 115.025 71.28C114.572 71.5733 114.119 72.04 113.665 72.68C113.239 73.24 112.865 73.84 112.545 74.48C112.225 75.12 112.025 75.7067 111.945 76.24C112.105 76.32 112.292 76.36 112.505 76.36ZM124.776 82.52C123.469 82.52 122.522 82.0533 121.936 81.12C121.349 80.16 121.056 79.0533 121.056 77.8C121.056 76.6267 121.269 75.4533 121.696 74.28C122.149 73.08 122.762 72.08 123.536 71.28C124.336 70.48 125.269 70.08 126.336 70.08C126.389 70.08 126.509 70.0933 126.696 70.12C126.882 70.12 127.002 70.1333 127.056 70.16C127.856 69.36 128.682 68.96 129.536 68.96C130.309 68.96 130.962 69.3067 131.496 70C132.056 70.6667 132.336 71.6133 132.336 72.84C132.336 73.6933 132.202 74.6 131.936 75.56C131.669 76.52 131.322 77.4267 130.896 78.28C130.496 79.1067 130.056 79.7867 129.576 80.32C129.682 80.3467 129.776 80.36 129.856 80.36C129.936 80.36 130.029 80.36 130.136 80.36C131.069 80.36 131.989 80.12 132.896 79.64C133.802 79.16 134.656 78.5333 135.456 77.76C136.282 76.96 137.002 76.0933 137.616 75.16C137.749 75 137.842 74.92 137.896 74.92C138.029 74.92 138.096 75.0133 138.096 75.2C138.096 75.3867 138.042 75.5467 137.936 75.68C137.669 76.16 137.256 76.72 136.696 77.36C136.136 77.9733 135.482 78.5867 134.736 79.2C134.016 79.8133 133.242 80.32 132.416 80.72C131.589 81.12 130.762 81.32 129.936 81.32C129.749 81.32 129.549 81.3067 129.336 81.28C129.149 81.2267 128.962 81.1867 128.776 81.16C128.349 81.56 127.736 81.88 126.936 82.12C126.136 82.3867 125.416 82.52 124.776 82.52ZM128.456 79.96C129.229 79.1067 129.829 78.0133 130.256 76.68C130.682 75.3467 130.896 74.0667 130.896 72.84C130.896 72.68 130.896 72.52 130.896 72.36C130.896 72.2 130.882 72.0533 130.856 71.92C130.776 71.2267 130.616 70.7333 130.376 70.44C130.136 70.12 129.856 69.96 129.536 69.96C129.056 69.96 128.549 70.2533 128.016 70.84C127.509 71.4 127.149 72.08 126.936 72.88C126.722 73.6533 126.616 74.4667 126.616 75.32C126.616 76.3067 126.762 77.24 127.056 78.12C127.349 78.9733 127.816 79.5867 128.456 79.96ZM125.576 81.48C126.349 81.48 127.069 81.2133 127.736 80.68C126.989 80.1467 126.442 79.4133 126.096 78.48C125.749 77.5467 125.576 76.56 125.576 75.52C125.576 74.7733 125.656 74.04 125.816 73.32C126.002 72.5733 126.256 71.9067 126.576 71.32C126.069 71.4267 125.576 71.8667 125.096 72.64C124.616 73.4133 124.216 74.32 123.896 75.36C123.602 76.4 123.456 77.4 123.456 78.36C123.456 79.24 123.616 79.9867 123.936 80.6C124.256 81.1867 124.802 81.48 125.576 81.48Z" fill="#333333"/>
<path d="M187.5 6.25H181.956C178.675 6.25 175.525 7.54375 173.181 9.85L156.25 26.55V18.75C156.25 13.7772 154.275 9.00806 150.758 5.49175C147.242 1.97544 142.473 0 137.5 0H18.75C8.4125 0 0 8.40625 0 18.75V118.75C0 123.723 1.97544 128.492 5.49175 132.008C9.00805 135.525 13.7772 137.5 18.75 137.5H137.5C147.85 137.5 156.25 129.1 156.25 118.75V111.119L173.181 127.819C175.525 130.125 178.675 131.419 181.956 131.419H187.5C190.815 131.419 193.995 130.102 196.339 127.758C198.683 125.413 200 122.234 200 118.919V18.75C200 15.4348 198.683 12.2554 196.339 9.91116C193.995 7.56696 190.815 6.25 187.5 6.25ZM18.75 125C15.3 125 12.5 122.194 12.5 118.75V18.75C12.5 17.0924 13.1585 15.5027 14.3306 14.3306C15.5027 13.1585 17.0924 12.5 18.75 12.5H137.5C140.944 12.5 143.75 15.3 143.75 18.75V118.75C143.75 122.194 140.944 125 137.5 125H18.75ZM187.5 118.919H181.25L156.25 93.9188V93.75L150 87.5V50L181.25 18.75H187.5V118.919Z" fill="#333333"/>
</svg>
